<?xml version="1.0" encoding="utf-8"?>
<!-- Generator: Adobe Illustrator 22.0.1, SVG Export Plug-In . SVG Version: 6.00 Build 0)  -->
<svg version="1.1" id="レイヤー_1" xmlns="http://www.w3.org/2000/svg" xmlns:xlink="http://www.w3.org/1999/xlink" x="0px"
	 y="0px" viewBox="0 0 40 40" style="enable-background:new 0 0 40 40;" xml:space="preserve">
<style type="text/css">
	.st0{fill:#7ED321;}
	.st1{filter:url(#filter-2);}
	.st2{fill:none;stroke:#979797;}
	.st3{filter:url(#filter-4);}
	.st4{fill:#F8E01C;}
	.st5{filter:url(#filter-7);}
	.st6{filter:url(#filter-9);}
	.st7{filter:url(#filter-11);}
	.st8{fill:#E68B0E;}
	.st9{filter:url(#filter-13);}
	.st10{filter:url(#filter-15);}
	.st11{fill:#6D6D6D;}
	.st12{filter:url(#filter-17);}
</style>
<filter  filterUnits="objectBoundingBox" height="131.4%" id="filter-9" width="136.3%" x="-18.2%" y="-15.7%">
	<feMorphology  in="SourceAlpha" operator="erode" radius="3" result="shadowSpreadInner1"></feMorphology>
	<feGaussianBlur  in="shadowSpreadInner1" result="shadowBlurInner1" stdDeviation="3"></feGaussianBlur>
	<feOffset  dx="3" dy="6" in="shadowBlurInner1" result="shadowOffsetInner1"></feOffset>
	<feComposite  in="shadowOffsetInner1" in2="SourceAlpha" k2="-1" k3="1" operator="arithmetic" result="shadowInnerInner1">
		</feComposite>
	
		<feColorMatrix  in="shadowInnerInner1" result="shadowMatrixInner1" type="matrix" values="0 0 0 0 0   0 0 0 0 0   0 0 0 0 0  0 0 0 0.326002038 0">
		</feColorMatrix>
	<feMorphology  in="SourceAlpha" operator="erode" radius="1" result="shadowSpreadInner2"></feMorphology>
	<feGaussianBlur  in="shadowSpreadInner2" result="shadowBlurInner2" stdDeviation="2.5"></feGaussianBlur>
	<feOffset  dx="0" dy="0" in="shadowBlurInner2" result="shadowOffsetInner2"></feOffset>
	<feComposite  in="shadowOffsetInner2" in2="SourceAlpha" k2="-1" k3="1" operator="arithmetic" result="shadowInnerInner2">
		</feComposite>
	
		<feColorMatrix  in="shadowInnerInner2" result="shadowMatrixInner2" type="matrix" values="0 0 0 0 1   0 0 0 0 1   0 0 0 0 1  0 0 0 0.805027174 0">
		</feColorMatrix>
	<feMerge>
		<feMergeNode  in="shadowMatrixInner1"></feMergeNode>
		<feMergeNode  in="shadowMatrixInner2"></feMergeNode>
	</feMerge>
</filter>
<filter  filterUnits="objectBoundingBox" height="261.5%" id="filter-7" width="103.5%" x="-1.8%" y="-153.2%">
	<feGaussianBlur  in="SourceAlpha" result="shadowBlurInner1" stdDeviation="1.5"></feGaussianBlur>
	<feOffset  dx="-1" dy="0" in="shadowBlurInner1" result="shadowOffsetInner1"></feOffset>
	<feComposite  in="shadowOffsetInner1" in2="SourceAlpha" k2="-1" k3="1" operator="arithmetic" result="shadowInnerInner1">
		</feComposite>
	
		<feColorMatrix  in="shadowInnerInner1" result="shadowMatrixInner1" type="matrix" values="0 0 0 0 0   0 0 0 0 0   0 0 0 0 0  0 0 0 0.5 0">
		</feColorMatrix>
	<feMorphology  in="SourceAlpha" operator="erode" radius="1" result="shadowSpreadInner2"></feMorphology>
	<feGaussianBlur  in="shadowSpreadInner2" result="shadowBlurInner2" stdDeviation="1"></feGaussianBlur>
	<feOffset  dx="0" dy="0" in="shadowBlurInner2" result="shadowOffsetInner2"></feOffset>
	<feComposite  in="shadowOffsetInner2" in2="SourceAlpha" k2="-1" k3="1" operator="arithmetic" result="shadowInnerInner2">
		</feComposite>
	
		<feColorMatrix  in="shadowInnerInner2" result="shadowMatrixInner2" type="matrix" values="0 0 0 0 1   0 0 0 0 1   0 0 0 0 1  0 0 0 0.805027174 0">
		</feColorMatrix>
	<feMerge>
		<feMergeNode  in="shadowMatrixInner1"></feMergeNode>
		<feMergeNode  in="shadowMatrixInner2"></feMergeNode>
	</feMerge>
</filter>
<filter  filterUnits="objectBoundingBox" height="114.2%" id="filter-4" width="158.2%" x="-34.4%" y="-7.1%">
	<feGaussianBlur  in="SourceAlpha" result="shadowBlurInner1" stdDeviation="1.5"></feGaussianBlur>
	<feOffset  dx="-3" dy="0" in="shadowBlurInner1" result="shadowOffsetInner1"></feOffset>
	<feComposite  in="shadowOffsetInner1" in2="SourceAlpha" k2="-1" k3="1" operator="arithmetic" result="shadowInnerInner1">
		</feComposite>
	
		<feColorMatrix  in="shadowInnerInner1" result="shadowMatrixInner1" type="matrix" values="0 0 0 0 0   0 0 0 0 0   0 0 0 0 0  0 0 0 0.5 0">
		</feColorMatrix>
	<feMorphology  in="SourceAlpha" operator="erode" radius="1" result="shadowSpreadInner2"></feMorphology>
	<feGaussianBlur  in="shadowSpreadInner2" result="shadowBlurInner2" stdDeviation="1"></feGaussianBlur>
	<feOffset  dx="1" dy="1" in="shadowBlurInner2" result="shadowOffsetInner2"></feOffset>
	<feComposite  in="shadowOffsetInner2" in2="SourceAlpha" k2="-1" k3="1" operator="arithmetic" result="shadowInnerInner2">
		</feComposite>
	
		<feColorMatrix  in="shadowInnerInner2" result="shadowMatrixInner2" type="matrix" values="0 0 0 0 1   0 0 0 0 1   0 0 0 0 1  0 0 0 0.805027174 0">
		</feColorMatrix>
	<feMerge>
		<feMergeNode  in="shadowMatrixInner1"></feMergeNode>
		<feMergeNode  in="shadowMatrixInner2"></feMergeNode>
	</feMerge>
</filter>
<filter  filterUnits="objectBoundingBox" height="105.9%" id="filter-2" width="104.3%" x="-2.2%" y="-2.9%">
	<feGaussianBlur  in="SourceAlpha" result="shadowBlurInner1" stdDeviation="1.5"></feGaussianBlur>
	<feOffset  dx="-1" dy="0" in="shadowBlurInner1" result="shadowOffsetInner1"></feOffset>
	<feComposite  in="shadowOffsetInner1" in2="SourceAlpha" k2="-1" k3="1" operator="arithmetic" result="shadowInnerInner1">
		</feComposite>
	
		<feColorMatrix  in="shadowInnerInner1" result="shadowMatrixInner1" type="matrix" values="0 0 0 0 0   0 0 0 0 0   0 0 0 0 0  0 0 0 0.5 0">
		</feColorMatrix>
	<feMorphology  in="SourceAlpha" operator="erode" radius="1" result="shadowSpreadInner2"></feMorphology>
	<feGaussianBlur  in="shadowSpreadInner2" result="shadowBlurInner2" stdDeviation="1.5"></feGaussianBlur>
	<feOffset  dx="1" dy="1" in="shadowBlurInner2" result="shadowOffsetInner2"></feOffset>
	<feComposite  in="shadowOffsetInner2" in2="SourceAlpha" k2="-1" k3="1" operator="arithmetic" result="shadowInnerInner2">
		</feComposite>
	
		<feColorMatrix  in="shadowInnerInner2" result="shadowMatrixInner2" type="matrix" values="0 0 0 0 1   0 0 0 0 1   0 0 0 0 1  0 0 0 0.805027174 0">
		</feColorMatrix>
	<feMerge>
		<feMergeNode  in="shadowMatrixInner1"></feMergeNode>
		<feMergeNode  in="shadowMatrixInner2"></feMergeNode>
	</feMerge>
</filter>
<filter  filterUnits="objectBoundingBox" height="200.7%" id="filter-17" width="201.1%" x="-37.9%" y="-25.2%">
	<feOffset  dx="1" dy="2" in="SourceAlpha" result="shadowOffsetOuter1"></feOffset>
	<feGaussianBlur  in="shadowOffsetOuter1" result="shadowBlurOuter1" stdDeviation="1"></feGaussianBlur>
	<feColorMatrix  in="shadowBlurOuter1" type="matrix" values="0 0 0 0 0   0 0 0 0 0   0 0 0 0 0  0 0 0 0.5 0"></feColorMatrix>
</filter>
<filter  filterUnits="objectBoundingBox" height="200.7%" id="filter-15" width="201.1%" x="-37.9%" y="-25.2%">
	<feOffset  dx="1" dy="2" in="SourceAlpha" result="shadowOffsetOuter1"></feOffset>
	<feGaussianBlur  in="shadowOffsetOuter1" result="shadowBlurOuter1" stdDeviation="1"></feGaussianBlur>
	<feColorMatrix  in="shadowBlurOuter1" type="matrix" values="0 0 0 0 0   0 0 0 0 0   0 0 0 0 0  0 0 0 0.5 0"></feColorMatrix>
</filter>
<filter  filterUnits="objectBoundingBox" height="150.3%" id="filter-13" width="201.1%" x="-37.9%" y="-12.6%">
	<feOffset  dx="1" dy="2" in="SourceAlpha" result="shadowOffsetOuter1"></feOffset>
	<feGaussianBlur  in="shadowOffsetOuter1" result="shadowBlurOuter1" stdDeviation="1"></feGaussianBlur>
	<feColorMatrix  in="shadowBlurOuter1" type="matrix" values="0 0 0 0 0   0 0 0 0 0   0 0 0 0 0  0 0 0 0.5 0"></feColorMatrix>
</filter>
<filter  filterUnits="objectBoundingBox" height="150.3%" id="filter-11" width="201.1%" x="-37.9%" y="-12.6%">
	<feOffset  dx="1" dy="2" in="SourceAlpha" result="shadowOffsetOuter1"></feOffset>
	<feGaussianBlur  in="shadowOffsetOuter1" result="shadowBlurOuter1" stdDeviation="1"></feGaussianBlur>
	<feColorMatrix  in="shadowBlurOuter1" type="matrix" values="0 0 0 0 0   0 0 0 0 0   0 0 0 0 0  0 0 0 0.5 0"></feColorMatrix>
</filter>
<title>Noseradi</title>
<desc>Created with Sketch.</desc>
<g id="Page-1">
	<g id="Noseradi">
		<g id="Combined-Shape">
			<g>
				<path id="path-1" class="st0" d="M39,25.1L36.1,9.3c-0.8-3.4-3.7-5.3-6.5-5.3H10.4c-2.7,0-5.6,1.9-6.5,5.3L1,25.1v6.6h38V25.1z"
					/>
			</g>
			<g class="st1">
				<path id="path-1_2_" d="M39,25.1L36.1,9.3c-0.8-3.4-3.7-5.3-6.5-5.3H10.4c-2.7,0-5.6,1.9-6.5,5.3L1,25.1v6.6h38V25.1z"/>
			</g>
			<path class="st2" d="M38.8,25.1v6.4H1.2v-6.4L4.1,9.3c0.8-3.1,3.4-5.2,6.3-5.2h19.1c2.9,0,5.6,2.1,6.3,5.2L38.8,25.1z"/>
		</g>
		<g id="Combined-Shape_1_">
			<g>
				<path id="path-3" class="st0" d="M2.7,17.7l0.6-2.9h2.9l-0.5,2.9H2.7z M2.6,18.4l-0.7,3.8H5l0.6-3.8H2.6z M3.5,13.4L4,11.2h2.8
					l-0.4,2.3H3.5z M4.1,10.5l0.1-0.4c0.2-0.7,0.1-1.3,0.4-1.9h2.7l-0.4,2.2H4.1z"/>
			</g>
			<g class="st3">
				<path id="path-3_2_" d="M2.7,17.7l0.6-2.9h2.9l-0.5,2.9H2.7z M2.6,18.4l-0.7,3.8H5l0.6-3.8H2.6z M3.5,13.4L4,11.2h2.8l-0.4,2.3
					H3.5z M4.1,10.5l0.1-0.4c0.2-0.7,0.1-1.3,0.4-1.9h2.7l-0.4,2.2H4.1z"/>
			</g>
		</g>
		<g id="Rectangle-14">
			<g>
				<path id="path-5" class="st4" d="M1,31.7h38v3c0,0.7-0.6,1.3-1.3,1.3H2.3c-0.7,0-1.3-0.6-1.3-1.3V31.7z"/>
			</g>
			<path class="st2" d="M1.2,31.9h37.7v2.9c0,0.6-0.5,1.1-1.1,1.1H2.3c-0.6,0-1.1-0.5-1.1-1.1V31.9z"/>
		</g>
		<g id="Combined-Shape_2_">
			<g>
				<path id="path-6" class="st0" d="M14,24.8H3c-0.9,0-1.6,0.7-1.6,1.6v6.2h37.3v-6.2c0-0.9-0.7-1.6-1.6-1.6H26.7
					c-0.2,1.7-0.8,4.3-1.5,4.3h-9.7C14.8,29.1,14.2,26.5,14,24.8z"/>
			</g>
			<g class="st5">
				<path id="path-6_2_" d="M14,24.8H3c-0.9,0-1.6,0.7-1.6,1.6v6.2h37.3v-6.2c0-0.9-0.7-1.6-1.6-1.6H26.7c-0.2,1.7-0.8,4.3-1.5,4.3
					h-9.7C14.8,29.1,14.2,26.5,14,24.8z"/>
			</g>
		</g>
		<g id="Rectangle-15">
			<g>
				<path id="path-8" class="st0" d="M14.7,14.8c0.1-0.8,0.7-1.4,1.4-1.4h7.7c0.7,0,1.3,0.6,1.4,1.4l1.5,8.6
					c0.1,0.8-0.6,5.7-1.6,5.7H14.8c-1,0-1.7-5-1.6-5.7L14.7,14.8z"/>
			</g>
			<g class="st6">
				<path id="path-8_2_" d="M14.7,14.8c0.1-0.8,0.7-1.4,1.4-1.4h7.7c0.7,0,1.3,0.6,1.4,1.4l1.5,8.6c0.1,0.8-0.6,5.7-1.6,5.7H14.8
					c-1,0-1.7-5-1.6-5.7L14.7,14.8z"/>
			</g>
		</g>
		<g id="Rectangle-16">
			<g class="st7">
				<rect id="path-10_2_" x="16.5" y="20.4" width="2.6" height="5.2"/>
			</g>
			<g>
				<rect id="path-10_1_" x="16.5" y="20.4" class="st8" width="2.6" height="5.2"/>
			</g>
		</g>
		<g id="Rectangle-16-Copy">
			<g class="st9">
				<rect id="path-12_2_" x="21.7" y="20.4" width="2.6" height="5.2"/>
			</g>
			<g>
				<rect id="path-12_1_" x="21.7" y="20.4" class="st8" width="2.6" height="5.2"/>
			</g>
		</g>
		<g id="Rectangle-16-Copy-3">
			<g class="st10">
				<rect id="path-14_2_" x="16.5" y="25.6" width="2.6" height="2.6"/>
			</g>
			<g>
				<rect id="path-14_1_" x="16.5" y="25.6" class="st11" width="2.6" height="2.6"/>
			</g>
		</g>
		<g id="Rectangle-16-Copy-2">
			<g class="st12">
				<rect id="path-16_2_" x="21.7" y="25.6" width="2.6" height="2.6"/>
			</g>
			<g>
				<rect id="path-16_1_" x="21.7" y="25.6" class="st11" width="2.6" height="2.6"/>
			</g>
		</g>
	</g>
</g>
</svg>
